<svg width="291" height="80" viewBox="0 0 291 80" fill="none" xmlns="http://www.w3.org/2000/svg">
<path d="M129.22 25.22H135.94L124.78 59H114.58L103.42 25.22H110.08L119.62 56.42L129.22 25.22Z" fill="black"/>
<path d="M142.171 31.64C140.851 31.68 139.971 31.38 139.531 30.74C139.131 30.06 138.931 29.26 138.931 28.34C138.931 27.46 139.151 26.7 139.591 26.06C140.031 25.42 140.891 25.1 142.171 25.1C143.411 25.1 144.231 25.42 144.631 26.06C145.071 26.7 145.291 27.46 145.291 28.34C145.291 29.26 145.071 30.04 144.631 30.68C144.231 31.28 143.411 31.6 142.171 31.64ZM139.051 59V34.34H145.171V59H139.051Z" fill="black"/>
<path d="M158.906 59C156.946 59 155.466 58.52 154.466 57.56C153.506 56.6 153.026 55.04 153.026 52.88V38.66H149.306V34.34C150.466 34.34 151.366 34.22 152.006 33.98C152.646 33.74 153.106 33.18 153.386 32.3C153.666 31.42 153.806 30 153.806 28.04H158.726V34.34H164.366V38.66H158.726V54.2H164.486V59H158.906Z" fill="black"/>
<path d="M177.187 59C175.227 59 173.747 58.52 172.747 57.56C171.787 56.6 171.307 55.04 171.307 52.88V38.66H167.587V34.34C168.747 34.34 169.647 34.22 170.287 33.98C170.927 33.74 171.387 33.18 171.667 32.3C171.947 31.42 172.087 30 172.087 28.04H177.007V34.34H182.647V38.66H177.007V54.2H182.767V59H177.187Z" fill="black"/>
<path d="M195.048 59H189.048V25.22H213.108V30.5H195.048V38.78H208.848V43.76H195.048V59Z" fill="black"/>
<path d="M216.446 59V25.22H222.446V59H216.446Z" fill="black"/>
<path d="M239.204 59.6C236.404 59.6 234.084 59.06 232.244 57.98C230.404 56.9 229.024 55.42 228.104 53.54C227.184 51.62 226.724 49.44 226.724 47C226.684 43.32 227.704 40.3 229.784 37.94C231.904 35.54 235.044 34.34 239.204 34.34C243.244 34.34 246.304 35.5 248.384 37.82C250.504 40.14 251.564 43.2 251.564 47C251.564 49.36 251.124 51.5 250.244 53.42C249.364 55.34 248.004 56.86 246.164 57.98C244.324 59.06 242.004 59.6 239.204 59.6ZM239.204 54.44C240.964 54.44 242.304 54.06 243.224 53.3C244.184 52.54 244.824 51.58 245.144 50.42C245.464 49.22 245.624 48.02 245.624 46.82C245.624 45.58 245.464 44.36 245.144 43.16C244.824 41.96 244.184 40.98 243.224 40.22C242.304 39.46 240.964 39.08 239.204 39.08C237.404 39.08 236.024 39.48 235.064 40.28C234.144 41.04 233.504 42.02 233.144 43.22C232.824 44.38 232.664 45.58 232.664 46.82C232.664 48.02 232.824 49.22 233.144 50.42C233.504 51.58 234.144 52.54 235.064 53.3C236.024 54.06 237.404 54.44 239.204 54.44Z" fill="black"/>
<path d="M259.765 59L254.005 35.36V34.28H260.005L264.085 53.9H264.205L269.485 34.28H274.765L280.225 53.9H280.345L284.425 34.28H290.365V35.36L284.545 59H276.025L272.185 44.9H272.065L268.405 59H259.765Z" fill="black"/>
<path d="M80 40C80 62.0914 62.0914 80 40 80C17.9086 80 0 62.0914 0 40C0 17.9086 17.9086 0 40 0C62.0914 0 80 17.9086 80 40Z" fill="black"/>
<path d="M33 27.5C33 32.1944 29.1944 36 24.5 36C19.8056 36 16 32.1944 16 27.5C16 22.8056 19.8056 19 24.5 19C29.1944 19 33 22.8056 33 27.5ZM20.3557 27.5C20.3557 29.7888 22.2112 31.6443 24.5 31.6443C26.7888 31.6443 28.6443 29.7888 28.6443 27.5C28.6443 25.2112 26.7888 23.3557 24.5 23.3557C22.2112 23.3557 20.3557 25.2112 20.3557 27.5Z" fill="white"/>
<path d="M63 27.5C63 32.1944 59.1944 36 54.5 36C49.8056 36 46 32.1944 46 27.5C46 22.8056 49.8056 19 54.5 19C59.1944 19 63 22.8056 63 27.5ZM50.352 27.5C50.352 29.7909 52.2091 31.648 54.5 31.648C56.7909 31.648 58.648 29.7909 58.648 27.5C58.648 25.2091 56.7909 23.352 54.5 23.352C52.2091 23.352 50.352 25.2091 50.352 27.5Z" fill="white"/>
<path d="M63 52.5C63 57.1944 59.1944 61 54.5 61C49.8056 61 46 57.1944 46 52.5C46 47.8056 49.8056 44 54.5 44C59.1944 44 63 47.8056 63 52.5ZM50.352 52.5C50.352 54.7909 52.2091 56.648 54.5 56.648C56.7909 56.648 58.648 54.7909 58.648 52.5C58.648 50.2091 56.7909 48.352 54.5 48.352C52.2091 48.352 50.352 50.2091 50.352 52.5Z" fill="white"/>
<path d="M33 52.5C33 57.1944 29.1944 61 24.5 61C19.8056 61 16 57.1944 16 52.5C16 47.8056 19.8056 44 24.5 44C29.1944 44 33 47.8056 33 52.5ZM20.352 52.5C20.352 54.7909 22.2091 56.648 24.5 56.648C26.7909 56.648 28.648 54.7909 28.648 52.5C28.648 50.2091 26.7909 48.352 24.5 48.352C22.2091 48.352 20.352 50.2091 20.352 52.5Z" fill="white"/>
<path d="M30 25H49V30H30V25Z" fill="white"/>
<path d="M30 50H49V55H30V50Z" fill="white"/>
<path d="M29.2777 47.1869L46.6207 29.8439L50.1563 33.3794L32.8132 50.7224L29.2777 47.1869Z" fill="white"/>
</svg>
